<svg id="Layer_1" data-name="Layer 1" xmlns="http://www.w3.org/2000/svg" viewBox="0 0 30 30"><defs><style>.cls-1{fill:#b3b3b3;}</style></defs><title>grupos</title><path class="cls-1" d="M18.1,7.21a5.28,5.28,0,0,1,2.54,3.93,4.48,4.48,0,0,0,1.86.4,4.34,4.34,0,0,0,4.4-4.27,4.4,4.4,0,0,0-8.8-.06ZM15.22,16a4.34,4.34,0,0,0,4.4-4.27,4.4,4.4,0,0,0-8.8,0A4.34,4.34,0,0,0,15.22,16Zm1.87.29H13.35a5.56,5.56,0,0,0-5.63,5.47v4.51l.31.1a26.33,26.33,0,0,0,7.66,1.2,16.11,16.11,0,0,0,6.69-1.22l.29-.14h0V21.73A5.56,5.56,0,0,0,17.09,16.25Zm7.28-4.41h-3.7A5.2,5.2,0,0,1,19,15.51a6.53,6.53,0,0,1,4.78,6.22V23.1a15.52,15.52,0,0,0,5.9-1.21l.29-.14h0V17.31A5.56,5.56,0,0,0,24.37,11.84ZM7.5,11.55a4.46,4.46,0,0,0,2.34-.66,5.26,5.26,0,0,1,2-3.37c0-.08,0-.16,0-.24A4.34,4.34,0,0,0,7.5,3,4.34,4.34,0,0,0,3.1,7.28,4.34,4.34,0,0,0,7.5,11.55Zm4,4a5.2,5.2,0,0,1-1.67-3.65l-.41,0H5.63A5.56,5.56,0,0,0,0,17.31v4.5l.31.1a27.11,27.11,0,0,0,6.34,1.16V21.73A6.53,6.53,0,0,1,11.45,15.51Z"/></svg>